<svg width="30" height="30" viewBox="0 0 30 30" fill="none" xmlns="http://www.w3.org/2000/svg">
<path d="M12.3537 2.75864C12.9483 2.68857 13.5474 2.84563 14.0311 3.1984C14.5149 3.55116 14.8475 4.0736 14.9625 4.66114L14.9937 4.86989L15 4.99989V13.7499C15 14.0561 15.1124 14.3516 15.3159 14.5804C15.5193 14.8091 15.7997 14.9553 16.1037 14.9911L16.25 14.9999H24.75C25.413 14.9999 26.0489 15.2633 26.5178 15.7321C26.9866 16.201 27.25 16.8368 27.25 17.4999C27.2499 17.595 27.239 17.6898 27.2175 17.7824C26.7172 19.9407 25.6523 21.9273 24.1318 23.5387C22.6113 25.1501 20.6898 26.3285 18.5642 26.9531C16.4385 27.5776 14.185 27.626 12.0345 27.0933C9.88394 26.5605 7.91365 25.4657 6.32536 23.9211C4.73708 22.3764 3.58788 20.4374 2.99545 18.3025C2.40302 16.1677 2.38865 13.9137 2.95381 11.7714C3.51897 9.6292 4.64335 7.67566 6.2118 6.11087C7.78026 4.54608 9.73643 3.42628 11.88 2.86614L12.2175 2.78239L12.3537 2.75864Z" fill="white"/>
<path d="M17.5 4.37521V11.2502C17.5 11.5817 17.6317 11.8997 17.8661 12.1341C18.1005 12.3685 18.4185 12.5002 18.75 12.5002H25.625C25.8248 12.5002 26.0217 12.4522 26.1991 12.3604C26.3766 12.2686 26.5294 12.1355 26.6449 11.9725C26.7603 11.8094 26.835 11.621 26.8626 11.4232C26.8903 11.2253 26.8701 11.0237 26.8038 10.8352C26.1829 9.07188 25.1745 7.47025 23.8527 6.14826C22.5309 4.82626 20.9295 3.81758 19.1663 3.19646C18.9777 3.12988 18.776 3.1095 18.5779 3.13702C18.3799 3.16455 18.1913 3.23918 18.0281 3.35466C17.8649 3.47013 17.7317 3.62308 17.6398 3.80066C17.5479 3.97824 17.5 4.17527 17.5 4.37521Z" fill="white"/>
</svg>
