<svg width="210" height="26" viewBox="0 0 210 26" fill="none" xmlns="http://www.w3.org/2000/svg">
<g clip-path="url(#clip0_175_294)">
<path d="M54.1641 0H0.0288086V25.9967H54.1641V0Z" fill="white"/>
<path d="M22.2685 20.0454V21.3203H25.57V23.4756C25.4896 23.4789 25.3971 23.4866 25.3046 23.4877C24.406 23.4877 23.5074 23.4855 22.6077 23.4877C20.7962 23.4942 19.9197 22.3155 19.8459 20.738C19.8349 20.514 19.9109 20.2398 19.8051 20.0825C19.7137 19.9471 19.4208 19.9492 19.2193 19.8837C17.8329 19.4325 16.8991 18.4854 16.2879 17.1963C15.6844 15.9247 15.495 14.5592 15.3849 13.1729C15.2715 11.7352 15.3431 10.3063 15.5754 8.88942C15.8089 7.46815 16.2659 6.12664 17.3087 5.0637C18.4341 3.91664 19.8415 3.5474 21.3986 3.6195C22.6386 3.6774 23.7475 4.07177 24.6615 4.93916C25.4488 5.6853 25.9301 6.61059 26.2285 7.63748C26.789 9.56673 26.8397 11.544 26.6844 13.5224C26.5677 15.0136 26.2593 16.4731 25.4896 17.7917C24.8255 18.9278 23.8587 19.6598 22.5725 19.9634C22.4778 19.9853 22.3853 20.0126 22.2685 20.0432V20.0454ZM24.1725 11.9111C24.1582 11.9111 24.1439 11.91 24.1296 11.9089C24.1296 11.343 24.1725 10.7739 24.1186 10.2134C24.047 9.46076 23.9732 8.69605 23.7695 7.97286C23.4556 6.85748 22.7564 6.06219 21.5263 5.91034C20.3712 5.76723 19.314 6.05673 18.6522 7.19723C18.204 7.96958 18.0278 8.82168 18.0025 9.68799C17.9595 11.1584 17.9683 12.631 18.0025 14.1025C18.019 14.8323 18.1699 15.5533 18.4749 16.2273C18.8956 17.1559 19.5794 17.7535 20.6211 17.8605C21.7091 17.973 22.6551 17.7141 23.3147 16.7593C23.7365 16.1487 23.9545 15.4615 24.0217 14.7405C24.1087 13.801 24.1252 12.855 24.1725 11.9122V11.9111Z" fill="black"/>
<path d="M38.8553 7.45599C38.0768 7.81103 37.3698 8.13439 36.6507 8.46321C36.4712 8.08414 36.3149 7.71708 36.1276 7.3675C35.5859 6.35481 34.7522 5.84464 33.5817 5.87632C32.4111 5.908 31.5488 6.40069 31.0092 7.44943C30.4851 8.46868 30.3716 9.57095 30.3606 10.6874C30.3507 11.7886 30.3661 12.892 30.4135 13.992C30.4553 14.9796 30.7086 15.9169 31.2779 16.745C31.7658 17.454 32.4606 17.8079 33.3053 17.8647C34.8392 17.9696 35.751 17.3851 36.3611 15.9333C36.447 15.7279 36.5362 15.5236 36.6353 15.2899C37.013 15.4625 37.3742 15.6263 37.7343 15.7913C38.0867 15.953 38.4391 16.1157 38.7904 16.2763C38.0437 18.2394 36.8357 19.6858 34.7886 20.043C33.4022 20.2845 32.0609 20.1534 30.811 19.4684C29.6272 18.8195 28.9302 17.7664 28.4677 16.5396C27.9171 15.0779 27.7673 13.5496 27.7596 12.0016C27.7519 10.3739 27.8873 8.768 28.4644 7.22876C28.8729 6.14069 29.472 5.18372 30.4509 4.5075C31.192 3.99624 32.0223 3.73733 32.911 3.64994C33.7237 3.57019 34.5287 3.60078 35.3183 3.83565C36.4657 4.17649 37.3445 4.8691 37.9722 5.87523C38.2849 6.37666 38.5503 6.90649 38.8553 7.45599Z" fill="black"/>
<path d="M13.7961 20.903V22.8869H6.98291V2.53369H13.7906V4.51428H9.1611V20.903H13.7972H13.7961Z" fill="black"/>
<path d="M45.0341 4.52838H40.398C40.398 3.88822 40.3947 3.26662 40.4046 2.64612C40.4046 2.60133 40.496 2.53687 40.5555 2.52048C40.6381 2.49864 40.7295 2.51284 40.8175 2.51284C42.8306 2.51284 44.8425 2.51284 46.8555 2.51284H47.21V22.8923H40.4167V20.9117H45.0341V4.52838Z" fill="black"/>
<path d="M69.0929 22.0344H66.8288C66.0679 22.0344 65.5096 21.8235 65.155 21.4008C64.8004 20.978 64.6231 20.4339 64.6231 19.7687V19.0586C63.9393 18.969 63.349 18.7483 62.8524 18.3966C62.3557 18.0448 61.9461 17.5783 61.6234 16.995C61.3008 16.4127 61.0618 15.7157 60.9076 14.9029C60.7524 14.0902 60.6753 13.1845 60.6753 12.1871C60.6753 11.0991 60.7656 10.1235 60.9462 9.2605C61.1268 8.39638 61.4109 7.67101 61.7974 7.08218C62.1839 6.49336 62.674 6.04218 63.2675 5.72865C63.8611 5.41512 64.5703 5.25781 65.3962 5.25781C66.2221 5.25781 66.9312 5.41512 67.5248 5.72865C68.1183 6.04218 68.6084 6.49336 68.9949 7.08218C69.3814 7.67101 69.6655 8.39748 69.8461 9.2605C70.0267 10.1246 70.117 11.1002 70.117 12.1871C70.117 14.1961 69.801 15.7987 69.1689 16.995C68.5368 18.1912 67.5369 18.8794 66.1703 19.0586V20.7289H69.0918V22.0344H69.0929ZM65.3973 17.7149C65.9391 17.7149 66.3972 17.6089 66.7705 17.3981C67.1449 17.1872 67.4543 16.889 67.6988 16.5055C67.9433 16.1221 68.1216 15.6578 68.2307 15.1138C68.3397 14.5697 68.3948 13.9591 68.3948 13.2807V11.0925C68.3948 10.4272 68.3397 9.81983 68.2307 9.26924C68.1205 8.71974 67.9433 8.25218 67.6988 7.86764C67.4532 7.4842 67.1438 7.18596 66.7705 6.97512C66.3961 6.76428 65.938 6.65832 65.3973 6.65832C64.8566 6.65832 64.3974 6.76428 64.023 6.97512C63.6486 7.18596 63.3391 7.4842 63.0946 7.86764C62.8491 8.25109 62.6718 8.71865 62.5628 9.26924C62.4526 9.81983 62.3987 10.4272 62.3987 11.0925V13.2807C62.3987 13.9591 62.4537 14.5697 62.5628 15.1138C62.6718 15.6578 62.8502 16.121 63.0946 16.5055C63.3391 16.889 63.6486 17.1872 64.023 17.3981C64.3974 17.6089 64.8555 17.7149 65.3973 17.7149Z" fill="white"/>
<path d="M79.3671 17.2736H79.29C79.1865 17.5173 79.0577 17.751 78.9035 17.9739C78.7482 18.1978 78.5577 18.3934 78.3331 18.5594C78.1073 18.7255 77.8397 18.8599 77.5303 18.9626C77.2208 19.0652 76.8596 19.1166 76.4467 19.1166C75.4016 19.1166 74.5636 18.7867 73.9315 18.1279C73.2994 17.4692 72.9834 16.5384 72.9834 15.3346V8.98096H74.5317V15.0658C74.5317 15.9747 74.731 16.6499 75.1319 17.0912C75.5316 17.5326 76.1185 17.7532 76.8927 17.7532C77.2021 17.7532 77.505 17.715 77.8023 17.6385C78.0985 17.562 78.3639 17.4463 78.5951 17.2933C78.8275 17.1404 79.0136 16.9448 79.1568 16.7078C79.2988 16.4707 79.3693 16.1867 79.3693 15.8535V8.98205H80.9176V18.8861H79.3693V17.2736H79.3671Z" fill="white"/>
<path d="M92.3888 18.8861C91.782 18.8861 91.3503 18.7321 91.0927 18.4251C90.835 18.1181 90.6731 17.7336 90.6092 17.2737H90.5123C90.2932 17.8494 89.9419 18.3006 89.4574 18.6272C88.9739 18.9538 88.3253 19.1166 87.5126 19.1166C86.4676 19.1166 85.6362 18.8479 85.0162 18.3104C84.3973 17.7729 84.0879 17.0377 84.0879 16.1026C84.0879 15.1675 84.426 14.4705 85.1032 13.9723C85.7804 13.4731 86.8739 13.224 88.3826 13.224H90.5112V12.2507C90.5112 11.5253 90.3042 10.9823 89.8924 10.6196C89.4794 10.257 88.8925 10.0756 88.1315 10.0756C87.4609 10.0756 86.9125 10.2067 86.4863 10.4689C86.0602 10.7311 85.7188 11.0861 85.4611 11.534L84.4161 10.766C84.5449 10.5104 84.7189 10.2602 84.938 10.0144C85.1572 9.76864 85.4281 9.55234 85.7507 9.36444C86.0734 9.17654 86.4401 9.02688 86.853 8.91654C87.266 8.8062 87.7241 8.75049 88.2273 8.75049C89.4012 8.75049 90.3328 9.04545 91.0233 9.63536C91.7137 10.2253 92.0584 11.0457 92.0584 12.0977V17.561H93.4514V18.885H92.3877L92.3888 18.8861ZM87.7835 17.8308C88.1833 17.8308 88.5478 17.7828 88.877 17.6866C89.2063 17.5905 89.4926 17.4627 89.7382 17.3032C89.9826 17.1437 90.1732 16.9514 90.3086 16.7275C90.4441 16.5035 90.5112 16.2643 90.5112 16.0075V14.3754H88.3826C87.4532 14.3754 86.777 14.5033 86.3509 14.7589C85.9247 15.0145 85.7122 15.386 85.7122 15.8721V16.2752C85.7122 16.7875 85.8961 17.1743 86.2639 17.4365C86.6317 17.6986 87.1371 17.8297 87.7824 17.8297L87.7835 17.8308Z" fill="white"/>
<path d="M96.3157 18.886V8.98197H97.864V10.5944H97.9411C98.0446 10.3519 98.1734 10.1181 98.3276 9.89415C98.4829 9.6702 98.6723 9.47466 98.898 9.30861C99.1238 9.14256 99.3913 9.00819 99.7008 8.9055C100.01 8.80281 100.371 8.75146 100.784 8.75146C101.829 8.75146 102.667 9.08138 103.3 9.74012C103.932 10.3989 104.248 11.3307 104.248 12.5335V18.8871H102.699V12.8022C102.699 11.8944 102.499 11.2182 102.099 10.7768C101.699 10.3355 101.113 10.1148 100.338 10.1148C100.029 10.1148 99.7261 10.1531 99.4288 10.2295C99.1315 10.306 98.8672 10.4218 98.6359 10.5747C98.4036 10.7277 98.2164 10.9265 98.0743 11.1701C97.9322 11.4137 97.8618 11.6945 97.8618 12.0146V18.886H96.3135H96.3157Z" fill="white"/>
<path d="M112.317 18.8862C111.556 18.8862 110.998 18.6753 110.643 18.2548C110.289 17.8331 110.112 17.2912 110.112 16.627V10.3073H106.784V8.98324H109.26C109.596 8.98324 109.831 8.91661 109.966 8.78224C110.102 8.64787 110.169 8.41408 110.169 8.08198V5.49072H111.659V8.98434H116.206V10.3084H111.659V17.5643H116.206V18.8884H112.316L112.317 18.8862Z" fill="white"/>
<path d="M125.804 17.2736H125.727C125.624 17.5173 125.495 17.751 125.34 17.9739C125.186 18.1978 124.995 18.3934 124.77 18.5594C124.544 18.7255 124.277 18.8599 123.967 18.9626C123.658 19.0652 123.297 19.1166 122.884 19.1166C121.839 19.1166 121.001 18.7867 120.369 18.1279C119.736 17.4692 119.42 16.5384 119.42 15.3346V8.98096H120.969V15.0658C120.969 15.9747 121.169 16.6499 121.569 17.0912C121.969 17.5326 122.556 17.7532 123.33 17.7532C123.639 17.7532 123.942 17.715 124.239 17.6385C124.536 17.562 124.8 17.4463 125.032 17.2933C125.265 17.1404 125.451 16.9448 125.593 16.7078C125.735 16.4707 125.805 16.1867 125.805 15.8535V8.98205H127.354V18.8861H125.805V17.2736H125.804Z" fill="white"/>
<path d="M130.292 18.886V8.98197H131.724V10.1334H131.801C131.955 9.74995 132.176 9.42331 132.459 9.15457C132.742 8.88583 133.161 8.75146 133.716 8.75146C134.271 8.75146 134.728 8.89567 135.012 9.18298C135.296 9.47029 135.47 9.84499 135.534 10.306H135.593C135.773 9.8581 136.031 9.48777 136.367 9.19281C136.701 8.89894 137.166 8.75146 137.76 8.75146C138.572 8.75146 139.118 9.03331 139.395 9.59592C139.673 10.1596 139.811 10.9658 139.811 12.0146V18.886H138.38V12.2636C138.38 11.4192 138.293 10.8336 138.119 10.507C137.945 10.1804 137.625 10.0176 137.161 10.0176C136.748 10.0176 136.412 10.1487 136.154 10.4109C135.897 10.6731 135.768 11.0729 135.768 11.6104V18.8849H134.336V12.2626C134.336 11.4181 134.249 10.8326 134.075 10.5059C133.901 10.1793 133.588 10.0165 133.137 10.0165C132.724 10.0165 132.386 10.1476 132.12 10.4098C131.856 10.672 131.724 11.0718 131.724 11.6093V18.8838H130.292V18.886Z" fill="white"/>
<path d="M158.716 19.1165C157.064 19.1165 155.836 18.5211 155.03 17.3314C154.224 16.1418 153.821 14.4266 153.821 12.1871C153.821 9.94764 154.224 8.23252 155.03 7.04285C155.836 5.85319 157.065 5.25781 158.716 5.25781C159.335 5.25781 159.87 5.34084 160.321 5.50689C160.773 5.67294 161.159 5.89798 161.482 6.17874C161.805 6.46059 162.075 6.77739 162.295 7.12916C162.514 7.48092 162.708 7.83596 162.875 8.19428L161.482 8.8279C161.366 8.53403 161.231 8.25546 161.076 7.99327C160.921 7.73109 160.737 7.50059 160.524 7.30176C160.311 7.10403 160.059 6.94672 159.77 6.83092C159.48 6.71622 159.128 6.65832 158.716 6.65832C157.645 6.65832 156.848 7.06143 156.326 7.86764C155.804 8.67386 155.543 9.74882 155.543 11.0925V13.2807C155.543 14.6244 155.804 15.6993 156.326 16.5055C156.848 17.3118 157.645 17.7149 158.716 17.7149C159.129 17.7149 159.48 17.657 159.77 17.5423C160.06 17.4276 160.311 17.2702 160.524 17.0725C160.736 16.8737 160.92 16.6443 161.076 16.381C161.231 16.1188 161.366 15.8402 161.482 15.5464L162.875 16.18C162.708 16.5514 162.514 16.9097 162.295 17.255C162.075 17.6002 161.803 17.9137 161.482 18.1955C161.159 18.4774 160.773 18.7013 160.321 18.8674C159.87 19.0334 159.335 19.1165 158.716 19.1165Z" fill="white"/>
<path d="M165.623 17.562H169.106V6.00616H165.623V4.68213H170.653V17.562H174.136V18.886H165.623V17.562Z" fill="white"/>
<path d="M181.488 19.1166C180.791 19.1166 180.163 18.9954 179.602 18.7517C179.042 18.5092 178.564 18.1596 178.171 17.7052C177.776 17.2507 177.477 16.7067 177.271 16.0731C177.064 15.4395 176.961 14.7261 176.961 13.933C176.961 13.1399 177.065 12.4429 177.271 11.8028C177.477 11.1626 177.777 10.6164 178.171 10.1619C178.564 9.70746 179.042 9.35898 179.602 9.11536C180.164 8.87284 180.793 8.75049 181.488 8.75049C182.184 8.75049 182.814 8.87175 183.375 9.11536C183.936 9.35898 184.413 9.70746 184.806 10.1619C185.2 10.6164 185.499 11.1637 185.706 11.8028C185.912 12.4429 186.016 13.153 186.016 13.933C186.016 14.713 185.912 15.4395 185.706 16.0731C185.499 16.7067 185.2 17.2507 184.806 17.7052C184.412 18.1596 183.935 18.5081 183.375 18.7517C182.814 18.9943 182.184 19.1166 181.488 19.1166ZM181.488 17.7926C182.353 17.7926 183.049 17.537 183.577 17.0246C184.106 16.5133 184.37 15.7191 184.37 14.6442V13.224C184.37 12.1491 184.106 11.356 183.577 10.8436C183.049 10.3323 182.352 10.0756 181.488 10.0756C180.625 10.0756 179.928 10.3323 179.398 10.8436C178.869 11.356 178.606 12.1491 178.606 13.224V14.6442C178.606 15.7191 178.87 16.5123 179.398 17.0246C179.927 17.537 180.624 17.7926 181.488 17.7926Z" fill="white"/>
<path d="M196.872 18.8861C196.265 18.8861 195.833 18.7321 195.575 18.4251C195.318 18.1181 195.156 17.7336 195.092 17.2737H194.995C194.776 17.8494 194.425 18.3006 193.941 18.6272C193.458 18.9538 192.809 19.1166 191.997 19.1166C190.951 19.1166 190.12 18.8479 189.5 18.3104C188.881 17.7729 188.572 17.0377 188.572 16.1026C188.572 15.1675 188.91 14.4705 189.588 13.9723C190.265 13.4731 191.359 13.224 192.868 13.224H194.996V12.2507C194.996 11.5253 194.79 10.9823 194.377 10.6196C193.964 10.257 193.377 10.0756 192.617 10.0756C191.946 10.0756 191.397 10.2067 190.972 10.4689C190.546 10.7311 190.205 11.0861 189.947 11.534L188.902 10.766C189.031 10.5104 189.205 10.2602 189.424 10.0144C189.643 9.76864 189.914 9.55234 190.237 9.36444C190.559 9.17654 190.927 9.02688 191.34 8.91654C191.753 8.8062 192.211 8.75049 192.715 8.75049C193.888 8.75049 194.82 9.04545 195.51 9.63536C196.201 10.2253 196.546 11.0457 196.546 12.0977V17.561H197.939V18.885H196.875L196.872 18.8861ZM192.266 17.8308C192.666 17.8308 193.031 17.7828 193.36 17.6866C193.689 17.5905 193.975 17.4627 194.221 17.3032C194.465 17.1437 194.656 16.9514 194.791 16.7275C194.927 16.5035 194.994 16.2643 194.994 16.0075V14.3754H192.865C191.937 14.3754 191.26 14.5033 190.834 14.7589C190.407 15.0145 190.195 15.386 190.195 15.8721V16.2752C190.195 16.7875 190.379 17.1743 190.747 17.4365C191.114 17.6986 191.621 17.8297 192.265 17.8297L192.266 17.8308Z" fill="white"/>
<path d="M200.935 4.68213H202.483V13.6456H202.56L204.303 12.0135L207.63 8.98087H209.527L205.386 12.8579L210.01 18.8849H208.095L204.206 13.7406L202.483 15.2952V18.8849H200.935V4.68213Z" fill="white"/>
<path d="M210.33 23.8906H60.6885V24.7067H210.33V23.8906Z" fill="white"/>
</g>
<defs>
<clipPath id="clip0_175_294">
<rect width="210" height="26" fill="white"/>
</clipPath>
</defs>
</svg>
