<svg width="67" height="38" viewBox="0 0 67 38" fill="none" xmlns="http://www.w3.org/2000/svg">
<path d="M66.5282 0H0.534668V37.9952H66.5282V0Z" fill="white"/>
<path d="M27.6464 29.2971V31.1603H31.671V34.3105C31.573 34.3153 31.4602 34.3265 31.3474 34.3281C30.252 34.3281 29.1566 34.3249 28.0598 34.3281C25.8516 34.3376 24.783 32.6149 24.693 30.3093C24.6796 29.982 24.7722 29.5813 24.6434 29.3513C24.5319 29.1534 24.1749 29.1566 23.9292 29.0608C22.2391 28.4013 21.1007 27.0171 20.3557 25.133C19.62 23.2745 19.3891 21.2787 19.2549 19.2526C19.1166 17.1514 19.2039 15.063 19.4871 12.9922C19.7717 10.915 20.3288 8.95428 21.6001 7.40075C22.9721 5.72428 24.6877 5.18462 26.5859 5.29C28.0974 5.37462 29.4492 5.95101 30.5635 7.21874C31.5233 8.30924 32.1099 9.6616 32.4737 11.1624C33.157 13.9821 33.2188 16.872 33.0295 19.7635C32.8872 21.9429 32.5113 24.076 31.573 26.0032C30.7635 27.6637 29.5848 28.7334 28.0169 29.1773C27.9014 29.2092 27.7887 29.2492 27.6464 29.2939V29.2971ZM29.9674 17.4085C29.95 17.4085 29.9325 17.4069 29.9151 17.4053C29.9151 16.5782 29.9674 15.7464 29.9016 14.9273C29.8144 13.8272 29.7244 12.7096 29.4761 11.6526C29.0935 10.0224 28.2411 8.86008 26.7416 8.63815C25.3334 8.42899 24.0447 8.8521 23.2379 10.519C22.6915 11.6478 22.4767 12.8932 22.4458 14.1593C22.3935 16.3084 22.4042 18.4607 22.4458 20.6113C22.466 21.6779 22.6499 22.7317 23.0217 23.7168C23.5345 25.0739 24.3682 25.9473 25.6381 26.1038C26.9644 26.2682 28.1176 25.8898 28.9217 24.4944C29.4358 23.6018 29.7016 22.5976 29.7835 21.5438C29.8896 20.1707 29.9097 18.788 29.9674 17.4101V17.4085Z" fill="black"/>
<path d="M47.866 10.8979C46.9169 11.4168 46.055 11.8894 45.1784 12.37C44.9596 11.816 44.769 11.2795 44.5408 10.7686C43.8803 9.28848 42.8641 8.54285 41.4371 8.58915C40.0101 8.63545 38.959 9.35554 38.3012 10.8883C37.6622 12.378 37.524 13.989 37.5105 15.6207C37.4984 17.2302 37.5172 18.8428 37.575 20.4506C37.626 21.8939 37.9347 23.2639 38.6288 24.4741C39.2235 25.5103 40.0705 26.0276 41.1002 26.1107C42.9702 26.2639 44.0817 25.4097 44.8254 23.2878C44.9301 22.9876 45.0388 22.6891 45.1597 22.3474C45.6201 22.5997 46.0604 22.8392 46.4994 23.0802C46.929 23.3165 47.3585 23.5544 47.7868 23.7892C46.8766 26.6583 45.404 28.7723 42.9084 29.2944C41.2183 29.6472 39.5832 29.4556 38.0596 28.4545C36.6165 27.5061 35.7667 25.967 35.2029 24.1739C34.5317 22.0376 34.3491 19.8039 34.3397 17.5415C34.3303 15.1625 34.4955 12.8155 35.1989 10.5658C35.6969 8.97554 36.4272 7.57688 37.6206 6.58856C38.5241 5.84133 39.5362 5.46293 40.6196 5.3352C41.6103 5.21864 42.5916 5.26335 43.5541 5.60663C44.9529 6.10478 46.0242 7.11705 46.7894 8.58755C47.1706 9.32041 47.4941 10.0948 47.866 10.8979Z" fill="black"/>
<path d="M17.3178 30.5506V33.4501H9.01221V3.70312H17.3111V6.59783H11.6675V30.5506H17.3191H17.3178Z" fill="black"/>
<path d="M55.3983 6.61845H49.7467C49.7467 5.68281 49.7427 4.77433 49.7548 3.86744C49.7548 3.80197 49.8662 3.70777 49.9387 3.68382C50.0394 3.65189 50.1508 3.67265 50.2582 3.67265C52.7121 3.67265 55.1648 3.67265 57.6187 3.67265H58.051V33.4579H49.7696V30.5632H55.3983V6.61845Z" fill="black"/>
</svg>
