<svg width="23" height="22" viewBox="0 0 23 22" fill="none" xmlns="http://www.w3.org/2000/svg">
<path d="M2.83333 21.5C2.19167 21.5 1.64256 21.2717 1.186 20.8152C0.729445 20.3586 0.500778 19.8091 0.5 19.1667V2.83333C0.5 2.19167 0.728667 1.64256 1.186 1.186C1.64333 0.729445 2.19244 0.500778 2.83333 0.5H19.1667C19.8083 0.5 20.3578 0.728667 20.8152 1.186C21.2725 1.64333 21.5008 2.19244 21.5 2.83333V5.75H19.1667V2.83333H2.83333V19.1667H19.1667V16.25H21.5V19.1667C21.5 19.8083 21.2717 20.3578 20.8152 20.8152C20.3586 21.2725 19.8091 21.5008 19.1667 21.5H2.83333ZM12.1667 16.8333C11.525 16.8333 10.9759 16.6051 10.5193 16.1485C10.0628 15.6919 9.83411 15.1424 9.83333 14.5V7.5C9.83333 6.85833 10.062 6.30922 10.5193 5.85267C10.9767 5.39611 11.5258 5.16744 12.1667 5.16667H20.3333C20.975 5.16667 21.5245 5.39533 21.9818 5.85267C22.4392 6.31 22.6674 6.85911 22.6667 7.5V14.5C22.6667 15.1417 22.4384 15.6912 21.9818 16.1485C21.5253 16.6058 20.9758 16.8341 20.3333 16.8333H12.1667ZM20.3333 14.5V7.5H12.1667V14.5H20.3333ZM15.6667 12.75C16.1528 12.75 16.5662 12.5801 16.9068 12.2402C17.2475 11.9003 17.4174 11.4869 17.4167 11C17.4159 10.5131 17.2459 10.1001 16.9068 9.761C16.5677 9.42189 16.1543 9.25156 15.6667 9.25C15.179 9.24844 14.766 9.41878 14.4277 9.761C14.0893 10.1032 13.919 10.5162 13.9167 11C13.9143 11.4838 14.0847 11.8972 14.4277 12.2402C14.7707 12.5832 15.1837 12.7531 15.6667 12.75Z" fill="black"/>
</svg>
